# xmcd
#
# Track frame offsets: 
#        150
#        23616
#        42520
#        57516
#        78517
#        96570
#        115081
#        135199
#        152184
#        175559
#        203381
#        219361
#        236065
#        256409
#        280478
#        301108
#
# Disc length: 4333 seconds
#
# Revision: 2
# Processed by: cddbd v1.5.2PL0 Copyright (c) Steve Scherf et al.
# Submitted via: ExactAudioCopy v1.0b3
#
DISCID=d310eb10
DTITLE=Orhan Gencebay - Bir Ömür CD 2
DYEAR=2012
DGENRE=Folk
TTITLE0=Gitti de Gitti
TTITLE1=Vazgec Gönlüm
TTITLE2=Beni Biraz Anlasaydin
TTITLE3=Dokunma
TTITLE4=Hor Görme Garibi
TTITLE5=Aksam Günesi
TTITLE6=Bilmesin o Felek
TTITLE7=Kahrolayim
TTITLE8=Hatasiz Kul Olmaz
TTITLE9=Gurbet
TTITLE10=Yorgun Gözler
TTITLE11=Askimi Sakla
TTITLE12=Neyi Degistirdik ki
TTITLE13=Dilenci
TTITLE14=Sev Dedi Gözlerim
TTITLE15=Batsin Bu Dünya
EXTD=
EXTT0=
EXTT1=
EXTT2=
EXTT3=
EXTT4=
EXTT5=
EXTT6=
EXTT7=
EXTT8=
EXTT9=
EXTT10=
EXTT11=
EXTT12=
EXTT13=
EXTT14=
EXTT15=
PLAYORDER=
